<?xml version="1.0" standalone="no"?>
<!DOCTYPE svg PUBLIC "-//W3C//DTD SVG 20010904//EN"
 "http://www.w3.org/TR/2001/REC-SVG-20010904/DTD/svg10.dtd">
<svg version="1.0" xmlns="http://www.w3.org/2000/svg"
 width="400.000000pt" height="60.000000pt" viewBox="0 0 400.000000 60.000000"
 preserveAspectRatio="xMidYMid meet">

<g transform="translate(0.000000,60.000000) scale(0.100000,-0.100000)"
fill="#000000" stroke="none">
<path d="M0 470 l0 -130 76 0 c72 0 111 10 126 34 14 21 8 63 -12 81 -18 16
-18 19 -3 41 38 59 -17 104 -127 104 l-60 0 0 -130z m151 69 c17 -28 -9 -49
-61 -49 -48 0 -50 1 -50 28 0 16 3 32 8 36 11 12 93 0 103 -15z m12 -111 c19
-29 -9 -48 -69 -48 l-54 0 0 35 0 36 56 -3 c40 -2 60 -8 67 -20z"/>
<path d="M380 582 c-79 -42 -92 -149 -26 -209 30 -28 43 -33 84 -33 116 0 179
118 110 205 -43 55 -107 69 -168 37z m121 -51 c59 -59 24 -151 -57 -151 -52 0
-84 31 -84 82 0 48 14 76 43 88 40 16 68 10 98 -19z"/>
<path d="M690 470 c0 -123 1 -130 20 -130 18 0 20 7 20 85 0 47 3 85 8 85 4
-1 36 -39 70 -85 42 -55 71 -85 83 -85 19 0 19 7 17 127 -3 112 -5 128 -20
131 -16 3 -18 -6 -18 -82 0 -47 -3 -86 -8 -86 -4 0 -32 32 -61 71 -67 87 -78
99 -97 99 -11 0 -14 -24 -14 -130z"/>
<path d="M1217 593 c-4 -3 -7 -62 -7 -130 0 -116 1 -123 20 -123 17 0 20 7 20
40 0 40 0 40 38 40 52 0 104 29 115 64 15 45 -12 92 -60 105 -43 12 -116 14
-126 4z m135 -49 c4 -3 8 -18 8 -34 0 -35 -27 -53 -73 -48 -28 3 -32 7 -35 36
-6 56 3 65 50 58 22 -4 45 -9 50 -12z"/>
<path d="M1571 583 c-19 -37 -101 -226 -101 -234 0 -23 39 -6 50 21 12 29 15
30 75 30 60 0 63 -1 75 -30 8 -18 20 -30 31 -30 11 0 19 3 19 7 0 4 -23 63
-52 130 -53 125 -74 148 -97 106z m49 -141 c-11 -2 -31 -2 -44 0 l-25 3 22 49
21 50 23 -50 c22 -48 22 -49 3 -52z"/>
<path d="M1830 470 c0 -123 1 -130 20 -130 17 0 20 7 20 45 0 43 1 45 29 45
24 0 36 -9 62 -45 23 -32 39 -45 56 -45 26 0 25 4 -15 58 l-24 32 25 20 c52
41 40 115 -23 137 -19 7 -61 12 -92 12 l-58 1 0 -130z m134 80 c18 -6 26 -17
26 -33 0 -35 -19 -47 -72 -47 l-48 0 0 38 c0 21 3 42 7 45 9 10 58 8 87 -3z"/>
<path d="M2150 470 c0 -123 1 -130 20 -130 17 0 20 7 20 50 l0 50 65 0 c58 0
65 2 65 20 0 16 -8 19 -62 22 l-63 3 0 35 0 35 73 3 c63 2 73 5 70 20 -3 14
-18 17 -96 20 l-92 3 0 -131z"/>
<path d="M2444 585 c-3 -8 -4 -56 -3 -106 4 -85 6 -92 32 -115 22 -18 40 -24
78 -24 87 0 113 46 107 185 -3 62 -5 70 -23 70 -18 0 -20 -8 -23 -94 -1 -52
-8 -101 -14 -108 -7 -9 -27 -13 -52 -11 -54 4 -66 29 -66 136 0 67 -3 82 -15
82 -9 0 -18 -7 -21 -15z"/>
<path d="M2780 470 c0 -122 1 -130 20 -130 17 0 19 8 22 88 l3 87 35 -52 c19
-29 38 -53 41 -53 4 0 22 24 40 52 l34 53 3 -88 c3 -85 3 -87 28 -87 l25 0 -3
128 c-3 120 -4 127 -24 130 -16 2 -29 -11 -58 -58 -20 -33 -40 -60 -44 -60 -4
0 -24 27 -44 60 -26 42 -43 60 -58 60 -19 0 -20 -6 -20 -130z"/>
<path d="M3157 594 c-4 -4 -7 -63 -7 -131 l0 -123 95 0 c88 0 95 1 95 20 0 18
-7 20 -75 20 l-75 0 0 35 0 35 65 0 c58 0 65 2 65 20 0 18 -7 20 -66 20 l-65
0 3 33 3 32 73 3 c63 2 73 5 70 20 -3 14 -17 17 -89 20 -47 1 -88 0 -92 -4z"/>
<path d="M3450 502 c0 -93 2 -103 26 -131 23 -27 32 -31 77 -31 88 1 107 30
107 165 0 86 -2 96 -17 93 -15 -3 -19 -18 -23 -101 -5 -107 -11 -117 -66 -117
-47 0 -58 22 -64 124 -4 76 -8 91 -22 94 -16 3 -18 -7 -18 -96z"/>
<path d="M3788 594 c-5 -4 -8 -63 -8 -131 l0 -123 25 0 c23 0 25 4 25 45 0 42
2 45 28 45 21 0 34 -10 57 -45 21 -30 37 -45 53 -45 29 0 28 7 -8 55 -28 36
-29 40 -13 48 49 26 58 89 18 127 -20 18 -39 24 -97 28 -40 2 -76 1 -80 -4z
m150 -58 c13 -12 13 -20 4 -41 -10 -22 -18 -25 -62 -25 l-50 0 0 46 0 47 46
-6 c25 -2 53 -12 62 -21z"/>
<path d="M1651 68 c1 -40 4 -61 6 -45 3 21 10 27 29 27 39 0 64 18 64 45 0 28
-26 45 -69 45 l-31 0 1 -72z m73 47 c8 -9 13 -22 10 -29 -6 -16 -50 -30 -64
-21 -11 7 -13 48 -3 58 11 12 41 8 57 -8z"/>
<path d="M1846 75 c-16 -36 -26 -68 -23 -71 3 -3 8 4 12 15 9 30 79 30 95 0 7
-11 14 -19 16 -16 6 6 -55 137 -64 137 -4 0 -20 -29 -36 -65z m60 -22 c-2 -2
-15 -3 -28 -1 -24 3 -24 4 -10 38 l15 35 14 -34 c8 -18 12 -35 9 -38z"/>
<path d="M2041 68 c1 -49 4 -63 8 -43 8 40 35 43 62 6 13 -17 27 -31 32 -31 5
0 0 12 -11 27 -18 25 -18 27 0 45 10 10 18 22 18 27 0 22 -34 41 -71 41 l-39
0 1 -72z m77 53 c8 -5 12 -17 10 -27 -2 -14 -13 -20 -41 -22 -33 -3 -37 -1
-37 21 0 13 3 27 7 30 9 10 45 8 61 -2z"/>
<path d="M2240 70 c0 -40 4 -70 10 -70 6 0 10 30 10 70 0 40 -4 70 -10 70 -6
0 -10 -30 -10 -70z"/>
<path d="M2359 124 c-18 -21 -1 -46 40 -58 19 -6 31 -15 31 -26 0 -23 -26 -33
-50 -20 -27 14 -34 12 -20 -5 16 -19 64 -19 80 0 20 24 7 49 -30 61 -48 16
-50 50 -3 48 18 -1 30 2 27 7 -9 15 -61 10 -75 -7z"/>
</g>
</svg>
