<?xml version="1.0" standalone="no"?>
<!DOCTYPE svg PUBLIC "-//W3C//DTD SVG 20010904//EN"
 "http://www.w3.org/TR/2001/REC-SVG-20010904/DTD/svg10.dtd">
<svg version="1.0" xmlns="http://www.w3.org/2000/svg"
 width="2430.000000pt" height="774.000000pt" viewBox="0 0 2430.000000 774.000000"
 preserveAspectRatio="xMidYMid meet">

<g transform="translate(0.000000,774.000000) scale(0.100000,-0.100000)"
fill="#000000" stroke="none">
<path d="M9148 7446 c-364 -65 -627 -302 -709 -641 -31 -128 -31 -317 0 -433
45 -171 134 -338 264 -496 32 -38 57 -72 57 -77 0 -5 -62 -50 -137 -100 -198
-132 -277 -195 -373 -295 -103 -106 -158 -185 -216 -308 -65 -138 -85 -226
-91 -398 -8 -222 23 -382 108 -550 127 -251 371 -463 649 -563 192 -69 453
-93 640 -61 282 50 566 201 808 430 62 59 75 67 86 55 7 -8 86 -103 176 -212
89 -109 171 -202 181 -207 10 -6 158 -10 361 -10 274 0 348 3 363 14 10 7 16
19 12 27 -3 8 -114 147 -247 309 -133 162 -285 348 -337 412 l-95 117 124 138
c217 243 308 357 308 386 0 16 -363 400 -383 404 -18 4 -25 -3 -122 -122 -49
-60 -126 -150 -170 -199 -44 -49 -92 -103 -106 -119 l-25 -30 -317 386 c-174
213 -317 389 -317 391 0 2 45 40 100 85 290 237 428 409 492 611 20 65 23 95
23 230 0 178 -13 237 -76 365 -104 212 -314 376 -565 441 -123 32 -345 41
-466 20z m376 -499 c145 -67 216 -203 195 -377 -10 -85 -51 -163 -124 -235
-66 -64 -297 -248 -320 -253 -20 -5 -220 243 -264 328 -49 95 -65 163 -59 251
9 126 84 230 208 287 98 45 263 45 364 -1z m-29 -2037 c190 -233 345 -428 345
-431 0 -14 -160 -156 -238 -212 -291 -209 -534 -244 -761 -110 -129 77 -240
217 -282 356 -17 55 -21 87 -17 166 3 86 8 106 37 165 40 81 128 178 256 281
129 104 288 215 302 212 7 -1 168 -193 358 -427z"/>
<path d="M12000 5520 l0 -1940 300 0 300 0 2 1235 3 1235 615 -760 615 -760
49 3 50 2 602 743 c331 409 609 751 618 760 15 15 16 -78 16 -1221 l0 -1237
300 0 300 0 0 1940 0 1940 -44 0 -44 0 -889 -1007 c-488 -554 -893 -1013 -898
-1020 -8 -10 -227 232 -910 1007 l-899 1020 -43 0 -43 0 0 -1940z"/>
<path d="M18103 7438 c-13 -17 -1873 -3841 -1873 -3851 0 -4 147 -7 328 -7
l327 0 215 480 215 480 840 0 841 0 169 -377 c93 -208 190 -424 216 -480 l48
-103 326 0 c270 0 326 2 323 14 -2 7 -424 878 -938 1934 l-935 1922 -46 0
c-26 0 -51 -6 -56 -12z m352 -1703 c163 -357 299 -658 302 -667 5 -17 -28 -18
-602 -18 -574 0 -607 1 -601 18 11 29 600 1321 602 1319 1 -1 136 -294 299
-652z"/>
<path d="M4562 7033 l3 -298 883 -5 883 -5 -1053 -1515 -1052 -1515 -4 -57 -4
-58 1641 0 1641 0 0 300 0 300 -1100 2 -1100 3 1060 1527 c1024 1476 1060
1529 1060 1573 l0 45 -1430 0 -1430 0 2 -297z"/>
<path d="M5846 2599 c-197 -20 -206 -22 -206 -42 0 -10 21 -16 76 -20 100 -7
118 -23 110 -92 -3 -27 -107 -403 -231 -834 -124 -431 -225 -788 -225 -793 0
-5 41 -7 92 -6 l91 3 13 40 c7 22 38 126 69 230 64 215 115 331 211 478 116
178 238 278 320 262 42 -7 54 -29 54 -98 0 -69 -13 -112 -125 -407 -51 -135
-98 -271 -104 -303 -24 -134 31 -217 147 -217 115 0 211 78 316 259 32 56 35
66 23 78 -12 13 -21 5 -62 -57 -113 -170 -212 -226 -237 -135 -12 46 13 133
113 392 50 131 98 270 106 310 28 139 -17 235 -123 262 -149 38 -321 -83 -476
-337 -28 -45 -53 -80 -55 -78 -2 2 34 124 81 272 84 270 246 823 246 843 0 13
-1 13 -224 -10z"/>
<path d="M7914 2600 c-425 -111 -781 -656 -750 -1149 25 -408 241 -680 542
-681 175 0 379 97 540 258 213 213 343 508 360 823 11 190 -31 388 -111 519
-122 201 -350 291 -581 230z m295 -56 c131 -66 182 -240 161 -554 -27 -399
-134 -736 -306 -961 -60 -78 -125 -133 -203 -172 -128 -63 -286 -46 -361 40
-125 141 -150 415 -74 792 61 307 182 576 323 724 111 117 191 156 322 157 72
0 93 -4 138 -26z"/>
<path d="M15908 2600 c-387 -45 -720 -405 -815 -878 -26 -131 -23 -390 5 -497
82 -304 285 -468 557 -452 172 10 314 76 437 205 77 81 113 132 168 240 36 72
90 202 90 218 0 3 -12 4 -26 2 -22 -3 -31 -16 -64 -96 -61 -144 -126 -247
-215 -337 -99 -100 -189 -150 -308 -171 -222 -40 -356 43 -415 259 -25 94 -22
351 7 527 58 342 172 608 332 775 81 84 152 129 239 151 127 32 234 2 330 -96
102 -102 150 -241 155 -445 3 -100 6 -121 19 -123 9 -2 18 2 21 10 3 7 37 159
75 338 39 179 73 333 76 343 4 12 0 17 -13 17 -12 0 -32 -20 -53 -52 -42 -63
-87 -92 -130 -83 -16 4 -62 29 -102 56 -112 76 -232 105 -370 89z"/>
<path d="M477 2573 c-21 -20 -2 -31 64 -35 93 -7 123 -28 127 -90 2 -32 -47
-244 -173 -747 -96 -387 -182 -719 -191 -739 -31 -76 -72 -100 -184 -109 -69
-5 -80 -9 -80 -24 0 -18 16 -19 364 -19 323 0 365 2 370 16 3 9 6 17 6 18 0 2
-41 6 -91 8 -100 6 -136 23 -154 72 -10 28 9 112 127 570 l51 198 102 -4 c153
-7 229 -52 256 -151 11 -41 7 -175 -7 -224 -5 -18 -2 -23 14 -23 17 0 30 41
121 405 55 223 101 407 101 410 0 3 -8 5 -18 5 -13 0 -22 -12 -31 -42 -42
-141 -123 -248 -220 -292 -92 -41 -301 -62 -301 -31 0 41 162 672 182 706 14
26 37 46 65 60 40 19 57 21 196 18 151 -4 153 -4 222 -39 135 -68 170 -149
168 -393 -1 -142 0 -158 15 -155 14 3 30 62 79 288 34 157 64 300 68 318 l6
32 -624 0 c-343 0 -627 -3 -630 -7z"/>
<path d="M13324 2441 c-42 -18 -74 -69 -74 -118 0 -38 5 -50 34 -79 29 -29 41
-34 80 -34 36 0 52 6 80 31 80 70 41 190 -65 204 -19 3 -43 1 -55 -4z"/>
<path d="M22275 2436 c-65 -29 -93 -103 -61 -164 60 -115 240 -58 223 70 -6
46 -29 75 -74 94 -39 17 -50 17 -88 0z"/>
<path d="M21670 2295 c-73 -162 -177 -299 -267 -352 -25 -14 -76 -36 -116 -47
-103 -32 -99 -46 13 -46 90 0 91 0 84 -22 -4 -13 -54 -187 -111 -388 -81 -284
-104 -379 -104 -426 0 -140 71 -213 208 -214 121 0 215 56 304 184 74 103 103
164 88 182 -16 19 -22 13 -63 -60 -44 -79 -115 -158 -160 -180 -43 -20 -125
-21 -153 -1 -31 22 -47 78 -39 144 3 31 55 218 115 416 l109 360 158 3 c152 2
173 7 174 35 0 4 -70 7 -155 7 -85 0 -155 4 -155 9 0 5 29 105 65 222 36 118
65 220 65 227 0 6 -7 12 -15 12 -10 0 -27 -26 -45 -65z"/>
<path d="M10403 2021 c-23 -11 -72 -49 -107 -86 -62 -63 -67 -65 -88 -51 -75
48 -227 59 -330 25 -248 -81 -378 -362 -270 -581 17 -35 44 -76 61 -92 l30
-29 -88 -43 c-165 -81 -214 -177 -128 -255 17 -16 60 -38 96 -50 l64 -22 -69
-17 c-207 -53 -312 -136 -322 -254 -10 -119 83 -200 287 -253 269 -68 542 -27
682 103 125 118 143 272 44 382 -70 78 -161 113 -417 162 -59 11 -129 28 -155
38 -90 33 -92 95 -6 155 l41 30 46 -23 c208 -100 476 0 583 218 37 73 38 80
38 181 0 97 -2 111 -28 159 -15 29 -44 71 -64 93 l-36 40 29 30 c35 36 112 89
131 89 9 0 13 -16 13 -54 0 -47 4 -57 26 -75 38 -30 80 -27 115 8 41 41 41
107 1 152 -24 27 -37 33 -83 36 -39 3 -66 -2 -96 -16z m-292 -153 c29 -16 47
-37 67 -77 24 -50 27 -66 25 -151 -4 -256 -134 -479 -279 -480 -43 0 -94 37
-124 90 -19 36 -25 63 -28 136 -7 163 42 333 123 423 72 80 144 99 216 59z
m-188 -1083 c72 -12 180 -56 218 -87 62 -51 78 -159 34 -233 -51 -89 -175
-138 -345 -139 -178 -1 -304 41 -367 122 -90 118 -23 280 139 331 76 24 207
27 321 6z"/>
<path d="M2830 1911 c-150 -48 -273 -147 -377 -301 -162 -242 -180 -537 -43
-711 66 -83 215 -126 343 -99 107 22 193 73 295 177 50 51 92 100 92 107 0 34
-29 17 -105 -60 -63 -65 -96 -90 -155 -118 -153 -73 -257 -55 -313 55 -15 30
-32 81 -37 114 -12 74 -13 192 -2 199 5 3 53 15 108 27 321 69 527 188 568
328 20 68 20 84 1 148 -19 64 -84 125 -150 142 -64 16 -162 13 -225 -8z m153
-52 c15 -11 32 -37 38 -58 16 -55 7 -188 -16 -236 -45 -93 -156 -161 -340
-210 -55 -14 -108 -29 -118 -31 -15 -5 -17 0 -11 38 10 69 62 218 100 285 42
76 124 167 183 205 56 35 125 38 164 7z"/>
<path d="M4973 1915 c-214 -60 -393 -249 -473 -500 -15 -48 -24 -106 -27 -187
-5 -103 -3 -126 16 -185 54 -167 194 -264 361 -250 133 11 237 73 341 204 47
59 57 78 48 89 -9 11 -27 -2 -93 -70 -99 -104 -160 -136 -254 -136 -161 0
-219 104 -209 370 9 237 73 408 201 536 98 97 186 125 301 93 43 -12 109 -71
103 -91 -3 -7 -27 -15 -55 -18 -60 -6 -89 -28 -104 -80 -23 -77 27 -150 103
-150 59 0 97 24 120 77 44 100 -9 229 -117 286 -52 27 -187 33 -262 12z"/>
<path d="M14056 1915 c-179 -49 -358 -217 -439 -410 -126 -301 -67 -584 143
-684 47 -22 68 -26 150 -26 86 0 101 3 163 32 72 35 151 103 218 190 37 47 40
56 28 69 -13 12 -21 7 -62 -42 -95 -113 -183 -164 -285 -164 -102 0 -157 43
-189 148 -27 85 -24 297 6 417 65 265 225 445 395 445 97 0 186 -50 186 -104
0 -11 -11 -15 -40 -14 -109 1 -163 -121 -86 -198 29 -29 41 -34 79 -34 86 0
134 66 124 170 -13 142 -111 221 -271 219 -39 0 -93 -7 -120 -14z"/>
<path d="M16960 1908 c-93 -33 -155 -72 -233 -147 -193 -185 -276 -444 -218
-674 23 -90 47 -138 95 -194 136 -158 420 -126 618 69 119 117 189 245 224
407 50 236 -36 458 -204 534 -72 32 -198 34 -282 5z m232 -38 c144 -112 72
-633 -124 -895 -108 -146 -276 -190 -342 -91 -80 123 -49 473 63 711 89 187
208 295 327 295 36 0 59 -6 76 -20z"/>
<path d="M20701 1915 c-85 -24 -167 -73 -248 -149 -282 -263 -360 -670 -168
-875 105 -113 279 -131 455 -49 50 24 89 54 169 135 91 92 102 106 89 119 -13
13 -25 4 -104 -74 -115 -115 -193 -156 -301 -156 -57 -1 -77 3 -100 20 -69 51
-104 146 -106 289 -1 52 1 96 3 99 3 2 59 16 124 31 225 50 391 122 476 205
70 68 84 101 85 191 0 67 -3 81 -30 124 -43 70 -104 99 -210 102 -48 2 -102
-3 -134 -12z m149 -63 c80 -80 57 -278 -42 -368 -56 -50 -163 -98 -295 -133
l-113 -29 0 28 c0 49 50 203 93 285 46 87 148 200 207 228 56 27 116 22 150
-11z"/>
<path d="M22985 1906 c-91 -29 -153 -66 -227 -134 -144 -134 -233 -319 -253
-528 -23 -237 113 -431 316 -450 147 -14 273 45 392 185 59 69 74 98 58 114
-9 9 -17 4 -38 -23 -47 -63 -132 -138 -185 -164 -71 -35 -178 -37 -229 -4
-133 89 -141 462 -14 723 100 206 254 300 417 255 71 -20 137 -115 76 -110
-53 5 -72 -2 -104 -34 -29 -29 -34 -41 -34 -81 0 -40 5 -52 34 -81 29 -29 41
-34 80 -34 39 0 52 6 83 33 32 30 37 41 41 91 7 81 -13 142 -63 192 -77 76
-211 96 -350 50z"/>
<path d="M2213 1901 c-87 -40 -177 -146 -281 -330 -30 -53 -51 -87 -47 -76 70
198 119 395 102 412 -4 3 -88 2 -187 -3 -179 -9 -199 -14 -200 -46 0 -5 35 -8
78 -8 107 0 127 -14 118 -84 -3 -28 -69 -253 -145 -501 l-139 -450 90 -3 c50
-1 92 -1 94 1 2 2 33 100 68 218 87 287 157 447 271 618 53 81 146 171 175
171 19 0 21 -4 15 -44 -11 -74 28 -126 95 -126 51 0 86 25 105 75 30 77 4 154
-60 181 -47 19 -102 17 -152 -5z"/>
<path d="M4026 1904 c-123 -39 -245 -160 -371 -370 -41 -69 -44 -61 -10 31 37
99 75 251 75 302 l0 46 -157 -7 c-200 -9 -223 -13 -223 -37 0 -17 8 -19 80
-19 68 0 83 -3 101 -21 17 -17 19 -28 14 -62 -4 -23 -70 -246 -146 -494 -76
-249 -139 -455 -139 -458 0 -3 42 -5 93 -5 l94 0 62 216 c71 246 108 338 192
479 118 198 243 317 333 319 65 1 81 -18 79 -97 -1 -73 -19 -130 -138 -442
-76 -199 -89 -240 -92 -305 -4 -60 -1 -82 15 -109 40 -73 144 -93 240 -45 62
31 126 100 192 208 53 85 58 101 36 109 -9 4 -33 -24 -70 -78 -117 -173 -216
-217 -224 -101 -4 61 12 115 119 392 99 260 120 347 101 422 -7 26 -21 58 -30
72 -40 56 -143 81 -226 54z"/>
<path d="M9330 1896 c-86 -45 -180 -161 -277 -341 -23 -44 -43 -78 -43 -75 0
3 18 60 40 125 33 99 70 255 70 297 0 12 -333 0 -367 -13 -13 -5 -23 -15 -23
-24 0 -12 15 -15 80 -15 68 0 83 -3 101 -21 18 -18 20 -28 14 -66 -5 -34 -194
-662 -279 -930 -7 -23 -6 -23 87 -23 l94 0 33 113 c73 248 115 368 171 487 94
196 183 329 259 385 55 41 66 35 65 -36 0 -54 3 -63 28 -85 59 -50 151 -18
177 62 13 40 6 95 -16 130 -37 55 -137 70 -214 30z"/>
<path d="M10973 1905 c-131 -40 -275 -180 -358 -345 -124 -246 -126 -550 -6
-683 49 -55 101 -77 181 -77 111 0 215 66 314 200 l41 55 -3 -80 c-5 -130 30
-175 136 -175 89 0 174 57 257 174 43 62 85 137 85 155 0 5 -6 11 -14 14 -9 4
-26 -14 -50 -52 -66 -107 -154 -191 -200 -191 -24 0 -46 29 -46 62 0 41 24
132 150 566 61 207 110 380 110 384 0 4 -10 8 -23 8 -15 0 -29 -11 -41 -32
-25 -43 -137 -187 -165 -212 -18 -17 -21 -17 -21 -3 0 36 -45 132 -79 170 -20
22 -54 48 -76 58 -47 22 -131 24 -192 4z m197 -62 c126 -73 124 -368 -3 -637
-58 -123 -111 -199 -186 -269 -90 -83 -161 -97 -216 -43 -32 32 -45 86 -45
191 0 479 239 881 450 758z"/>
<path d="M12487 1909 c-126 -30 -246 -150 -414 -415 -6 -11 8 43 33 118 43
135 74 281 61 294 -4 4 -88 3 -187 -2 -139 -7 -183 -13 -190 -24 -15 -24 -1
-30 73 -30 101 0 121 -15 114 -84 -3 -28 -67 -249 -141 -491 -75 -242 -136
-446 -136 -453 0 -10 22 -12 91 -10 l91 3 30 100 c87 300 113 377 153 460 93
195 240 381 338 429 62 31 86 32 121 5 22 -17 26 -28 26 -74 0 -67 -21 -134
-131 -424 -49 -128 -95 -264 -101 -302 -11 -62 -10 -73 8 -116 27 -65 70 -93
142 -93 36 0 71 7 98 21 57 27 153 132 209 226 39 68 43 79 30 92 -8 8 -16 13
-17 10 -112 -170 -190 -252 -235 -247 -17 2 -33 13 -42 30 -23 40 -3 116 99
383 108 283 120 322 120 402 0 76 -16 120 -59 156 -51 42 -108 54 -184 36z"/>
<path d="M17923 1905 c-155 -42 -254 -158 -256 -299 -2 -122 43 -186 208 -295
167 -110 205 -160 205 -269 0 -83 -31 -139 -95 -172 -42 -21 -63 -25 -135 -25
-99 1 -157 16 -200 51 -39 34 -38 57 5 83 64 37 71 118 14 165 -74 62 -179 5
-179 -98 0 -48 42 -128 84 -160 77 -58 165 -86 271 -86 131 0 239 44 315 127
59 64 85 133 84 223 -1 121 -38 169 -230 306 -145 103 -171 134 -181 213 -12
102 42 179 142 201 85 19 236 -15 235 -53 0 -6 -14 -30 -30 -51 -42 -55 -41
-105 1 -140 45 -38 92 -35 135 8 37 37 44 78 23 133 -43 115 -248 183 -416
138z"/>
<path d="M19165 1906 c-121 -38 -221 -135 -349 -340 -31 -49 -56 -87 -56 -84
0 2 14 44 30 94 41 120 70 240 70 293 l0 44 -152 -7 c-203 -9 -228 -13 -228
-37 0 -17 8 -19 78 -19 91 0 122 -15 122 -60 0 -16 -63 -235 -140 -487 -78
-252 -143 -466 -146 -475 -5 -16 4 -18 89 -18 l94 0 68 233 c49 164 85 264
123 342 104 212 227 371 324 419 60 30 85 32 116 10 19 -13 22 -24 22 -78 0
-35 -9 -96 -19 -137 -15 -57 -213 -709 -236 -777 -4 -10 16 -12 87 -10 l91 3
18 55 c97 306 129 392 184 505 82 168 151 273 240 361 82 83 132 106 181 83
41 -20 50 -70 31 -158 -9 -38 -59 -181 -110 -318 -110 -288 -117 -310 -117
-381 0 -98 48 -153 139 -160 70 -5 128 17 189 72 56 51 172 222 172 254 0 6
-6 12 -14 15 -9 4 -30 -18 -60 -64 -78 -117 -144 -179 -190 -179 -27 0 -46 30
-46 74 0 57 18 114 117 371 121 311 137 412 80 496 -51 75 -164 97 -260 50
-95 -46 -212 -174 -316 -346 -24 -38 -40 -61 -37 -50 46 160 56 245 35 316
-27 88 -121 128 -224 95z"/>
<path d="M23830 1905 c-153 -43 -250 -160 -250 -303 0 -121 39 -177 196 -283
192 -129 218 -164 212 -288 -6 -136 -67 -185 -228 -186 -82 0 -103 4 -152 27
-68 32 -96 73 -63 92 10 6 32 23 47 38 45 43 34 118 -22 151 -78 46 -171 -14
-170 -110 1 -77 87 -175 189 -214 35 -14 88 -24 141 -27 186 -10 333 66 399
207 35 75 37 195 4 256 -28 53 -98 117 -208 192 -50 33 -107 79 -127 101 -86
95 -68 240 36 294 80 43 274 20 284 -33 2 -9 -9 -30 -23 -48 -15 -17 -29 -49
-32 -71 -14 -105 146 -139 187 -40 37 89 -26 188 -146 233 -67 26 -203 31
-274 12z"/>
<path d="M13175 1903 c-173 -10 -195 -14 -195 -34 0 -17 8 -19 73 -19 101 0
122 -15 114 -84 -4 -28 -52 -199 -107 -381 -112 -365 -126 -442 -93 -505 41
-78 143 -104 239 -59 57 27 142 120 205 224 42 70 46 82 34 94 -8 8 -16 13
-18 10 -2 -2 -23 -33 -47 -69 -85 -126 -157 -188 -206 -176 -57 15 -45 93 75
481 92 300 121 415 121 485 l0 40 -72 -2 c-40 -1 -95 -3 -123 -5z"/>
<path d="M22063 1900 c-118 -8 -133 -12 -133 -36 0 -11 16 -14 69 -14 38 0 81
-4 95 -10 51 -19 53 -11 -104 -525 -91 -299 -103 -377 -67 -443 39 -71 144
-95 233 -51 57 27 153 132 209 226 41 71 44 79 29 93 -11 10 -18 11 -21 4 -2
-7 -23 -39 -46 -72 -112 -158 -184 -206 -223 -147 -25 38 -7 124 91 441 99
317 125 419 125 492 l0 52 -72 -1 c-40 -1 -123 -5 -185 -9z"/>
</g>
</svg>
