<svg xmlns="http://www.w3.org/2000/svg" width="86" height="86" viewBox="0 0 86 86">
  <g id="Groupe_11170" data-name="Groupe 11170" transform="translate(0 -3)">
    <path id="Tracé_1" data-name="Tracé 1" d="M3.01,3.01H82.99V82.99H3.01ZM0,86H86V0H0Z" transform="translate(0 3)" fill="#003d6a"/>
    <g id="Groupe_2" data-name="Groupe 2" transform="translate(0 3)">
      <g id="Groupe_30433" data-name="Groupe 30433" transform="translate(0 2.805)">
        <rect id="Rectangle_1" data-name="Rectangle 1" width="5.37" height="35.413" transform="translate(9.15 37.181)" fill="#003d6a"/>
        <path id="Tracé_2" data-name="Tracé 2" d="M305.949,226.672l.77-.572.619-.332a19.306,19.306,0,0,1,10.525-2.853,19.827,19.827,0,0,1,8.24,1.482l-1.2,4.4a16.563,16.563,0,0,0-7.036-1.342c-7.267,0-12.5,4.583-12.5,13.563,0,8.934,4.861,13.656,11.8,13.656a11.268,11.268,0,0,0,4.722-.741v-10h-6.11v-4.3h11.3v17.637a29.609,29.609,0,0,1-10.092,1.805c-15.322,0-17.266-12.175-17.266-17.822,0,0-.093-9.1,6.148-14.543" transform="translate(-250.225 -186.105)" fill="#003d6a"/>
        <path id="Tracé_3" data-name="Tracé 3" d="M211.351,109.627h-.01a.1.1,0,0,1-.095-.114l2.377-25.87c-.287-.2-1.283-1.288-.863-6.485a1.928,1.928,0,0,1,.175-2.149,1.019,1.019,0,0,1-.661-.354,3.619,3.619,0,0,1-.408-2.829,2.66,2.66,0,0,0-.37-1.4c-.242-.531-.452-.99-.222-1.3.2-.274.7-.35,1.614-.241,0-.527-.027-3.095-.661-11.991-.169-.155-.661-.639-.637-.986a1.44,1.44,0,0,1-.716-.577.4.4,0,0,1-.006-.316l.21-1.295a.105.105,0,0,1,.078-.085l1.193-.3v-.29a2.222,2.222,0,0,1-.215-1.555,3.074,3.074,0,0,1,1.538-1.851.1.1,0,0,1,.156.117,1.912,1.912,0,0,0,.606,1.835.872.872,0,0,1,.195.7,1.133,1.133,0,0,1-.675.726l-.031.4,1.247.276a.105.105,0,0,1,.082.1l-.021,1.013a.657.657,0,0,1,.154.608c-.1.267-.43.434-1.01.51a1.169,1.169,0,0,1-.364.841c.073.258.392,1.446.814,3.814.008.041.851,4.269,1.3,5.887l1.987.4.356-.488L216.576,64.3a.1.1,0,0,1,.137-.157l2.444,1.661.935-.2.062-3.331a.1.1,0,0,1,.1-.1.109.109,0,0,1,.112.084l.665,3.366.75.146,2.1-1.822a.1.1,0,0,1,.155.139l-1.417,2.062.456.523L226,65.945a.1.1,0,0,1,.069.2l-2.7,1.238-.016.445,3.483.225a.1.1,0,0,1,0,.209l-3.478.268-.1.758a3.023,3.023,0,0,0-.111.692c0,.012.017.041.035.084.194.453.769,1.791.2,2.188l.61,1.9a.1.1,0,0,1-.174.107l-1.5-1.492c-.041.444-.045,1.188.248,1.324l.148.022a5.366,5.366,0,0,1,1.315.321,6.721,6.721,0,0,1,.64.255.1.1,0,0,1,.06.084,3.544,3.544,0,0,1,1,.882l.006.008.005.008a7.881,7.881,0,0,1,1.135,3.773,2.117,2.117,0,0,1,1.215.437l.607-1.168a.1.1,0,0,1,.13-.05l.405.155-.017-.644a.1.1,0,0,1,.155-.094l3.457,1.918a.1.1,0,0,1,.019.17l-.375.335.087.295a.1.1,0,0,1-.009.082l-.69,1.209a1.607,1.607,0,0,1-.195,1.71c-.046.175-.44,1.538-1.58,1.638.019.652.039,4-1.526,4.386a.105.105,0,0,1-.034,0,.452.452,0,0,0-.357.16c-.132.156-.25.5-.062,1.27.025.243.554,5.621.448,6.445a.106.106,0,0,1-.024.054l-.292.348a9.436,9.436,0,0,1,.036,1.409c-.01.03-.033.1-.465.391a.1.1,0,0,1-.118-.173,3.561,3.561,0,0,0,.384-.291c.005-.11-.026-.889-.048-1.367a.105.105,0,0,1,.024-.072l.3-.355c.087-.9-.444-6.3-.449-6.354a1.636,1.636,0,0,1,.111-1.445.683.683,0,0,1,.512-.23c1.516-.4,1.351-4.234,1.349-4.273a.1.1,0,0,1,.1-.11c1.135-.02,1.487-1.485,1.49-1.5a.106.106,0,0,1,.014-.033c.606-.952.192-1.521.174-1.545a.106.106,0,0,1-.008-.116l.7-1.226-.093-.315a.1.1,0,0,1,.031-.108l.314-.281-3.168-1.757.016.618a.1.1,0,0,1-.142.1l-.464-.178-.657,1.266a.1.1,0,0,1-.2-.03c-.052-.294-.775-.452-1.219-.483a.1.1,0,0,1-.1-.1,7.953,7.953,0,0,0-1.1-3.755,3.722,3.722,0,0,0-1.739-1.2,7.749,7.749,0,0,0-1.108-.263c-.093-.011-.147-.015-.15-.015l-.02,0a.385.385,0,0,1-.046-.014,8.579,8.579,0,0,0-2.116-.034.1.1,0,0,1-.075-.018c-2.618-1.844-2.894-3.111-2.921-3.3a8.1,8.1,0,0,1-.483-.7.1.1,0,0,1-.016-.044l-.17-1.454a.1.1,0,0,1,0-.012.105.105,0,0,1,.1-.1l1.273-.105a.107.107,0,0,1,.078.026.1.1,0,0,1,.035.074l.064,1.623v0a.1.1,0,0,1-.017.057c-.111.17-.478.731-.544.8a.12.12,0,0,1-.047.027,3.847,3.847,0,0,0,.678,1.092.107.107,0,0,1,.008-.025l.7-1.529a.106.106,0,0,1,.112-.06l.022.006h0s0,0,0,0h0a.1.1,0,0,1,.06.08v0a1.326,1.326,0,0,0,1.465,1.108c.059,0,1.222.1,1.511-.873a9.22,9.22,0,0,0,.248-1.367c0-.016,0-.025,0-.026a.106.106,0,0,1,.115-.094.1.1,0,0,1,.094.1s0,.007,0,.011a9.409,9.409,0,0,1-.258,1.431,1.438,1.438,0,0,1-.091.233,1.682,1.682,0,0,1-1.575.793h-.058a1.546,1.546,0,0,1-1.581-.992l-.454,1.035-.13.232a.1.1,0,0,1-.089.053,11.069,11.069,0,0,0,1.956,1.705,8.868,8.868,0,0,1,1.843.006,3.013,3.013,0,0,1-.11-1.526.1.1,0,0,1,.177-.058l1.349,1.34-.5-1.571a.1.1,0,0,1,.056-.127c.192-.089.418-.463-.226-1.963-.022-.051-.036-.086-.041-.1a2.5,2.5,0,0,1,.1-.8l.1-.831a.1.1,0,0,1,.1-.091l2.086-.161-2.106-.136a.105.105,0,0,1-.1-.108l.021-.611a.1.1,0,0,1,.061-.092l1.747-.8-1.912.472a.105.105,0,0,1-.1-.033l-.551-.632a.1.1,0,0,1-.007-.128l1-1.454-1.524,1.319a.106.106,0,0,1-.089.024l-.869-.169a.105.105,0,0,1-.083-.083l-.489-2.476L220.3,65.69a.1.1,0,0,1-.082.1l-1.06.232a.105.105,0,0,1-.081-.016l-1.753-1.191,1.359,1.5a.1.1,0,0,1,.007.132l-.446.611a.1.1,0,0,1-.105.041l-2.116-.427a.105.105,0,0,1-.08-.074c-.447-1.577-1.313-5.923-1.322-5.967-.478-2.679-.821-3.836-.825-3.847a.105.105,0,0,1,.02-.1c.471-.558.337-.773.336-.775a.1.1,0,0,1-.015-.1.1.1,0,0,1,.088-.063c.549-.055.892-.193.964-.388s-.137-.424-.139-.426a.106.106,0,0,1-.029-.074l.019-.968-1.252-.277a.1.1,0,0,1-.082-.11l.042-.548a.1.1,0,0,1,.059-.086c.359-.172.566-.376.615-.607a.661.661,0,0,0-.14-.515,2.122,2.122,0,0,1-.7-1.792,2.734,2.734,0,0,0-1.246,1.594,2.02,2.02,0,0,0,.2,1.422.106.106,0,0,1,.016.056v.4a.1.1,0,0,1-.08.1l-1.206.3-.2,1.238a.113.113,0,0,1-.007.025.2.2,0,0,0,0,.164c.1.23.526.437.683.5a.1.1,0,0,1,.057.142c-.078.167.307.622.592.877a.1.1,0,0,1,.035.071c.733,10.283.663,12.153.662,12.171a.1.1,0,0,1-.118.1c-.865-.113-1.381-.065-1.535.144s.039.637.244,1.089a2.793,2.793,0,0,1,.385,1.522,3.423,3.423,0,0,0,.359,2.653.829.829,0,0,0,.7.289.1.1,0,0,1,.1.055.1.1,0,0,1-.009.113,1.719,1.719,0,0,0-.266,2.094.106.106,0,0,1,.021.072c-.467,5.723.789,6.346.8,6.351a.108.108,0,0,1,.065.106l-2.383,25.936a.1.1,0,0,1-.1.1m5.765-39.486a8.181,8.181,0,0,0,.513.736c.091-.128.276-.4.446-.666l-.058-1.48-1.055.087Zm-.276,23.911a.1.1,0,0,1-.072-.181,14.155,14.155,0,0,0,4.178-9.542,8.756,8.756,0,0,1,1.417-5.579,3.707,3.707,0,0,1,1.532-1.28.1.1,0,0,1,.071.2c-.029.011-2.924,1.118-2.81,6.658a14.373,14.373,0,0,1-4.244,9.7.1.1,0,0,1-.072.029m9.591-2.686a.1.1,0,0,1-.1-.067,18.13,18.13,0,0,1-.608-10.037.1.1,0,0,1,.2.053,17.908,17.908,0,0,0,.6,9.907.1.1,0,0,1-.1.143m2.38-6.87H228.8a.1.1,0,0,1-.092-.116,3.021,3.021,0,0,1,1.4-2.466.1.1,0,0,1,.092.188,2.877,2.877,0,0,0-1.28,2.3.1.1,0,0,1-.1.092m-12.042-.288a.1.1,0,0,1-.062-.189c2.28-1.665,2.682-5.124,2.686-5.159a3.551,3.551,0,0,1,1.3-2.67,2.642,2.642,0,0,1,1.133-.514.107.107,0,0,1,.118.09.1.1,0,0,1-.09.118c-.083.012-2.027.312-2.255,3,0,.038-.415,3.588-2.771,5.308a.1.1,0,0,1-.062.02M220.3,71.015a.1.1,0,0,1-.1-.087.1.1,0,0,1,0-.018.1.1,0,0,1,.087-.1,2.629,2.629,0,0,1,.8-.02.1.1,0,0,1-.047.2,2.483,2.483,0,0,0-.723.022H220.3m.38-.579a.793.793,0,0,1-.32-.08.1.1,0,0,1-.058-.094.1.1,0,0,1,.011-.047.1.1,0,0,1,.14-.048c.054.026.227.09.314.039.04-.023.062-.077.065-.161.021-.463.042-1.136.042-1.136a.106.106,0,0,1,.041-.08c.4-.3,1.263-.086,1.3-.077a.1.1,0,0,1,.079.1.106.106,0,0,1,0,.026.1.1,0,0,1-.127.076,1.84,1.84,0,0,0-1.082.014c-.005.169-.023.7-.041,1.086a.347.347,0,0,1-.362.38M219.2,69.087a.1.1,0,0,1-.1-.071.1.1,0,0,1-.006-.034.1.1,0,0,1,.071-.1,1.768,1.768,0,0,1,1.059-.085.105.105,0,0,1,.072.1.109.109,0,0,1-.005.033.1.1,0,0,1-.133.066,1.6,1.6,0,0,0-.925.085.1.1,0,0,1-.034.006m-2.592-.66a.1.1,0,0,1-.083-.041l-.742-.969a.105.105,0,0,1-.021-.064.1.1,0,0,1,.113-.1l2.163.169a.1.1,0,0,1,.074.04.1.1,0,0,1,.022.065.1.1,0,0,1,0,.017l-.085.527a.1.1,0,0,1-.082.086l-1.336.274-.021,0m-.516-.952.559.731,1.2-.246.055-.343Zm6.515.544a.152.152,0,0,1-.039-.006h0l-.024-.009a2.143,2.143,0,0,1-.448-.276,7.456,7.456,0,0,1-1.414-1.2,5.314,5.314,0,0,1-1.9,1.438.1.1,0,0,1-.084-.192,5.108,5.108,0,0,0,1.908-1.482h.019a.105.105,0,0,1,.06-.023.1.1,0,0,1,.083.033,12.391,12.391,0,0,0,1.47,1.286,3.63,3.63,0,0,0,.392.244.1.1,0,0,1,.074.1.116.116,0,0,1-.068.106.061.061,0,0,1-.024,0" transform="translate(-176.023 -41.435)" fill="#003d6a"/>
        <path id="Tracé_4" data-name="Tracé 4" d="M134.876,226.931l-.274-.7-.256-1.319-.016-2.148-.03-.015-.048-.023a13,13,0,0,0-5.315-.94C121.9,221.719,117.41,226,117.41,231.6c0,4.815,3.564,8.008,8.841,10.137,4.213,1.759,6.019,3.612,6.019,6.62,0,3.194-2.361,5.37-6.573,5.37a15.481,15.481,0,0,1-7.684-2.083l-1.2,4.49a17.243,17.243,0,0,0,8.564,2.129c7.962,0,12.36-4.444,12.36-10.37,0-4.861-2.732-7.962-8.425-10.462-4.49-1.944-6.481-3.426-6.481-6.435,0-2.269,1.763-4.558,5.971-4.722,2.816-.11,5.279.609,6.337,1.492l.074-.238-.105-.369Z" transform="translate(-97.52 -185.165)" fill="#003d6a"/>
      </g>
      <rect id="Rectangle_5" data-name="Rectangle 5" width="86" height="86" fill="none"/>
    </g>
  </g>
</svg>
